# xmcd
#
# Track frame offsets:
#	150
#	14852
#	30057
#	46785
#	58452
#	75350
#	91335
#	102495
#	120855
#	134447
#
# Disc length: 1973 seconds
#
# Revision: 0
# Processed by: cddbd v1.5.2PL0 Copyright (c) Steve Scherf et al.
# Submitted via: audiograbber 1.83.01
#
DISCID=7607b30a
DTITLE=Reeves, Ronna - The more I learn
DYEAR=1992
DGENRE=Country
TTITLE0=The more I learn (the less I understand about love)
TTITLE1=I'll be faithful to you
TTITLE2=What if you're wrong
TTITLE3=Heartbreak shoes
TTITLE4=Honky tonk hearts
TTITLE5=There's love on the line
TTITLE6=We can hold our own
TTITLE7=Nobody here to love
TTITLE8=Frontier justice
TTITLE9=Bless your cheatin' heart
EXTD=
EXTT0=
EXTT1=
EXTT2=
EXTT3=
EXTT4=
EXTT5=
EXTT6=
EXTT7=
EXTT8=
EXTT9=
PLAYORDER=
